<?xml version="1.0" encoding="utf-8"?>
<svg version="1.1" xmlns="http://www.w3.org/2000/svg" xmlns:xlink="http://www.w3.org/1999/xlink" x="0px" y="0px"
	 viewBox="0 0 22.1 22" style="enable-background:new 0 0 22.1 22;" xml:space="preserve">
<style type="text/css">
	.st0{fill:none;stroke:#282C31;stroke-width:1.5;stroke-linecap:round;stroke-linejoin:round;}
	.st1{fill:none;stroke:#282C31;stroke-width:1.5;stroke-linecap:round;stroke-linejoin:round;stroke-miterlimit:10;}
	.st2{fill:none;stroke:#282C31;stroke-width:2;stroke-linecap:round;stroke-linejoin:round;}
</style>
<path class="st0" d="M8,21h6c5,0,7-2,7-7V8c0-5-2-7-7-7H8C3,1,1,3,1,8v6C1,19,3,21,8,21z"/>
<path class="st1" d="M15.3,12.6c-1.1,1.1-2.8,1.5-4.2,1l-2.6,2.6c-0.2,0.2-0.6,0.3-0.8,0.3l-1.2-0.2c-0.4,0-0.8-0.4-0.8-0.8
	l-0.2-1.2c0-0.3,0.1-0.6,0.3-0.8l2.6-2.6c-0.4-1.4-0.1-3,1-4.2c1.6-1.6,4.3-1.6,5.9,0C16.9,8.3,16.9,11,15.3,12.6z"/>
<path class="st1" d="M9.4,15.3l-0.9-0.9"/>
<path class="st2" d="M12.4,9.7L12.4,9.7"/>
</svg>
