<?xml version="1.0" encoding="utf-8"?>
<svg version="1.1" id="Слой_1" xmlns="http://www.w3.org/2000/svg" xmlns:xlink="http://www.w3.org/1999/xlink" x="0px" y="0px"
	 viewBox="0 0 32 32" style="enable-background:new 0 0 32 32;" xml:space="preserve">
<title>key-square</title>
<g>
	<path d="M20,30.3h-8C4.8,30.3,1.7,27.2,1.7,20v-8C1.7,4.8,4.8,1.7,12,1.7h8c7.2,0,10.3,3.1,10.3,10.3v8
		C30.3,27.2,27.2,30.3,20,30.3z M12,3.7c-6.2,0-8.3,2.2-8.3,8.3v8c0,6.2,2.2,8.3,8.3,8.3h8c6.2,0,8.3-2.2,8.3-8.3v-8
		c0-6.2-2.2-8.3-8.3-8.3H12z"/>
</g>
<g>
	<path d="M11.7,24.3c-0.1,0-0.2,0-0.3,0l-1.6-0.2c-1-0.1-1.8-1-1.9-1.9l-0.2-1.6c-0.1-0.6,0.2-1.4,0.6-1.9l3.1-3.1
		c-0.5-2.2,0.2-4.4,1.8-6c2.5-2.5,6.7-2.5,9.3,0c1.2,1.2,1.9,2.9,1.9,4.6c0,1.7-0.7,3.4-1.9,4.6c0,0,0,0,0,0c-1.6,1.6-3.8,2.2-6,1.8
		l-3,3C13,24.1,12.4,24.3,11.7,24.3z M17.8,9.7c-1.2,0-2.3,0.4-3.2,1.3c-1.2,1.2-1.6,2.9-1.1,4.6c0.1,0.4,0,0.7-0.2,1L9.7,20
		c0,0-0.1,0.2-0.1,0.3l0.2,1.6c0,0.1,0.2,0.2,0.2,0.2l1.6,0.2c0.1,0,0.2,0,0.3-0.1l3.5-3.4c0.3-0.3,0.7-0.4,1-0.2
		c1.6,0.5,3.4,0.1,4.6-1.1c0.9-0.9,1.3-2,1.3-3.2c0-1.2-0.5-2.4-1.3-3.2C20.1,10.1,18.9,9.7,17.8,9.7z M21.7,18.1L21.7,18.1
		L21.7,18.1z"/>
</g>
<g>
	<path d="M13.9,22.7c-0.3,0-0.5-0.1-0.7-0.3l-1.1-1.1c-0.4-0.4-0.4-1,0-1.4c0.4-0.4,1-0.4,1.4,0l1.1,1.1c0.4,0.4,0.4,1,0,1.4
		C14.4,22.6,14.2,22.7,13.9,22.7z"/>
</g>
<g>
	<path d="M17.9,15.6c-0.7,0-1.3-0.6-1.3-1.3s0.6-1.3,1.3-1.3h0c0.7,0,1.3,0.6,1.3,1.3S18.6,15.6,17.9,15.6z"/>
</g>
</svg>
