<?xml version="1.0" encoding="utf-8"?>
<svg version="1.1" id="Layer_1" xmlns="http://www.w3.org/2000/svg" xmlns:xlink="http://www.w3.org/1999/xlink" x="0px" y="0px"
	 viewBox="0 0 24 24" style="enable-background:new 0 0 24 24;" xml:space="preserve">
<style type="text/css">
	.st0{fill:#7E7E7E;}
</style>
<g id="search_1">
	<g id="Vector">
		<path class="st0" d="M11,20c-5,0-9-4-9-9s4-9,9-9c5,0,9,4,9,9S16,20,11,20z M11,4c-3.9,0-7,3.1-7,7s3.1,7,7,7c3.9,0,7-3.1,7-7
			S14.9,4,11,4z"/>
	</g>
	<g id="Vector_2">
		<path class="st0" d="M21,22c-0.3,0-0.5-0.1-0.7-0.3l-4.3-4.3c-0.4-0.4-0.4-1,0-1.4c0.4-0.4,1-0.4,1.4,0l4.3,4.3
			c0.4,0.4,0.4,1,0,1.4C21.5,21.9,21.3,22,21,22z"/>
	</g>
</g>
</svg>
