<?xml version="1.0" encoding="utf-8"?>
<svg version="1.1" id="Слой_1" xmlns="http://www.w3.org/2000/svg" xmlns:xlink="http://www.w3.org/1999/xlink" x="0px" y="0px"
	 viewBox="0 0 32 32" style="enable-background:new 0 0 32 32;" xml:space="preserve">
<title>user-square</title>
<g>
	<path d="M20,30.3h-8c-1.8,0-3.2-0.2-4.5-0.5c-0.5-0.1-0.7-0.6-0.7-1c0.3-4,4.4-7.1,9.2-7.1s8.8,3.1,9.2,7.1c0,0.5-0.3,0.9-0.7,1
		C23.2,30.2,21.8,30.3,20,30.3z M9,28.1c0.9,0.2,1.9,0.3,3,0.3h8c1.2,0,2.2-0.1,3-0.3c-0.7-2.6-3.6-4.5-7-4.5S9.7,25.5,9,28.1z"/>
</g>
<g>
	<path d="M7.8,29.8c-0.1,0-0.2,0-0.3,0c-4-1.1-5.9-4.2-5.9-9.8v-8C1.7,4.8,4.8,1.7,12,1.7h8c7.2,0,10.3,3.1,10.3,10.3v8
		c0,5.5-1.9,8.7-5.9,9.8c-0.3,0.1-0.6,0-0.8-0.1c-0.2-0.2-0.4-0.4-0.4-0.7c-0.3-3-3.4-5.3-7.2-5.3c-3.8,0-6.9,2.3-7.2,5.3
		c0,0.3-0.2,0.6-0.4,0.7C8.2,29.8,8,29.8,7.8,29.8z M16,21.6c4.3,0,8,2.5,8.9,5.9c2.4-1.1,3.4-3.4,3.4-7.5v-8c0-6.2-2.2-8.3-8.3-8.3
		h-8c-6.2,0-8.3,2.2-8.3,8.3v8c0,4.1,1,6.4,3.4,7.5C8,24.1,11.7,21.6,16,21.6z M16,19.9c-3.2,0-5.8-2.6-5.8-5.8
		c0-3.2,2.6-5.8,5.8-5.8c3.2,0,5.8,2.6,5.8,5.8C21.8,17.3,19.2,19.9,16,19.9z M16,10.3c-2.1,0-3.8,1.7-3.8,3.8
		c0,2.1,1.7,3.8,3.8,3.8c2.1,0,3.8-1.7,3.8-3.8C19.8,12,18.1,10.3,16,10.3z"/>
</g>
<g>
	<path d="M16,19.9c-3.2,0-5.8-2.6-5.8-5.8s2.6-5.8,5.8-5.8c3.2,0,5.8,2.6,5.8,5.8S19.2,19.9,16,19.9z M16,10.3
		c-2.1,0-3.8,1.7-3.8,3.8c0,2.1,1.7,3.8,3.8,3.8s3.8-1.7,3.8-3.8C19.8,12,18.1,10.3,16,10.3z"/>
</g>
</svg>
