<?xml version="1.0" encoding="utf-8"?>
<svg version="1.1" id="Layer_1" xmlns="http://www.w3.org/2000/svg" xmlns:xlink="http://www.w3.org/1999/xlink" x="0px" y="0px"
	 viewBox="0 0 32 32" style="enable-background:new 0 0 32 32;" xml:space="preserve">
<title>wallet-money</title>
<g>
	<path d="M9.6,30.3c-3.2,0-5.8-2.3-5.8-5.1v-2.7c0-0.6,0.4-1,1-1s1,0.4,1,1c0,1.7,1.6,2.9,3.8,2.9c2.1,0,3.8-1.3,3.8-2.9
		c0-0.6,0.4-1,1-1s1,0.4,1,1v2.7C15.3,28,12.8,30.3,9.6,30.3z M6.1,26.5c0.6,1.1,1.9,1.8,3.4,1.8c1.5,0,2.8-0.8,3.4-1.8
		c-0.9,0.6-2.1,0.9-3.4,0.9C8.3,27.4,7.1,27.1,6.1,26.5z"/>
</g>
<g>
	<path d="M9.6,23.7c-2.2,0-4.1-1-5.1-2.6c-0.4-0.7-0.7-1.5-0.7-2.3c0-1.4,0.6-2.7,1.7-3.7c1.1-0.9,2.5-1.5,4-1.5
		c1.5,0,2.9,0.5,4,1.5c1.1,0.9,1.8,2.3,1.8,3.7h0c0,0.8-0.2,1.6-0.6,2.3C13.7,22.7,11.7,23.7,9.6,23.7z M9.5,15.7c-1,0-2,0.3-2.7,1
		c-0.7,0.6-1,1.4-1,2.2c0,0.5,0.1,0.9,0.4,1.3c0.6,1,1.9,1.6,3.4,1.6c1.5,0,2.8-0.6,3.4-1.6c0.2-0.4,0.4-0.8,0.4-1.3
		c0-0.8-0.4-1.6-1.1-2.2C11.5,16,10.6,15.7,9.5,15.7z"/>
</g>
<g>
	<path d="M9.6,27.4c-3.2,0-5.8-2.2-5.8-4.9v-3.7c0-2.8,2.6-5.1,5.8-5.1c1.5,0,2.9,0.5,4,1.5c1.1,1,1.7,2.3,1.7,3.7v3.7
		C15.3,25.3,12.9,27.4,9.6,27.4z M9.6,15.7c-2.1,0-3.8,1.4-3.8,3.1v3.7c0,1.7,1.6,2.9,3.8,2.9c2.1,0,3.8-1.3,3.8-2.9v-3.7
		c0-0.8-0.4-1.6-1-2.2C11.6,16,10.6,15.7,9.6,15.7z"/>
</g>
<g>
	<path d="M25.4,19.7c-2,0-3.7-1.5-3.9-3.4c-0.1-1.1,0.3-2.2,1.1-3c0.7-0.7,1.6-1.1,2.6-1.1H28c1.3,0,2.3,1.1,2.3,2.4v0v2.7
		c0,1.3-1,2.3-2.3,2.4L25.4,19.7z M28,14.3l-2.7,0c-0.5,0-0.9,0.2-1.2,0.5c-0.4,0.4-0.6,0.9-0.5,1.4c0.1,0.9,0.9,1.6,1.9,1.6H28
		c0.2,0,0.3-0.2,0.3-0.4v-2.7C28.3,14.4,28.2,14.3,28,14.3z"/>
</g>
<g>
	<path d="M21.3,28.3H18c-0.6,0-1-0.4-1-1s0.4-1,1-1h3.3c3.4,0,5.7-2.2,5.7-5.7v-0.9h-1.6c-2,0-3.7-1.5-3.9-3.4
		c-0.1-1.1,0.3-2.2,1.1-3c0.7-0.7,1.6-1.1,2.6-1.1H27v-0.9c0-3.1-1.8-5.3-4.8-5.6c-0.3,0-0.5-0.1-0.9-0.1h-12c-0.3,0-0.6,0-0.9,0.1
		c-2.9,0.4-4.7,2.5-4.7,5.6V14c0,0.6-0.4,1-1,1s-1-0.4-1-1v-2.7c0-4.1,2.5-7.1,6.5-7.6c0.4-0.1,0.8-0.1,1.2-0.1h12
		c0.3,0,0.7,0,1.2,0.1c3.9,0.5,6.5,3.4,6.5,7.6v1.9c0,0.6-0.4,1-1,1h-2.8c-0.5,0-0.9,0.2-1.2,0.5c-0.4,0.4-0.6,0.9-0.5,1.4
		c0.1,0.9,0.9,1.6,1.9,1.6H28c0.6,0,1,0.4,1,1v1.9C29,25.3,25.9,28.3,21.3,28.3z"/>
</g>
</svg>
