<?xml version="1.0" encoding="utf-8"?><svg xmlns="http://www.w3.org/2000/svg" xmlns:xlink="http://www.w3.org/1999/xlink"><symbol viewBox="0 0 24 24" id="3d-square" xmlns="http://www.w3.org/2000/svg"><path d="M15 22.75H9c-5.43 0-7.75-2.32-7.75-7.75V9c0-5.43 2.32-7.75 7.75-7.75h6c5.43 0 7.75 2.32 7.75 7.75v6c0 5.43-2.32 7.75-7.75 7.75Zm-6-20C4.39 2.75 2.75 4.39 2.75 9v6c0 4.61 1.64 6.25 6.25 6.25h6c4.61 0 6.25-1.64 6.25-6.25V9c0-4.61-1.64-6.25-6.25-6.25H9Z"/><path d="M12 13.08c-.13 0-.26-.03-.38-.1l-5.3-3.06a.742.742 0 0 1-.27-1.02c.21-.36.67-.48 1.02-.27l4.92 2.85 4.89-2.83c.36-.21.82-.08 1.02.27.2.35.08.82-.27 1.02l-5.26 3.04c-.11.06-.24.1-.37.1Z"/><path d="M12 18.52c-.41 0-.75-.34-.75-.75v-5.44c0-.41.34-.75.75-.75s.75.34.75.75v5.44c0 .41-.34.75-.75.75Z"/><path d="M12 18.75c-.58 0-1.15-.13-1.61-.38l-3.2-1.78c-.96-.53-1.7-1.8-1.7-2.9V10.3c0-1.09.75-2.36 1.7-2.9l3.2-1.78c.92-.51 2.3-.51 3.22 0l3.2 1.78c.96.53 1.7 1.8 1.7 2.9v3.39c0 1.09-.75 2.36-1.7 2.9l-3.2 1.78c-.46.26-1.03.38-1.61.38Zm0-12c-.33 0-.65.06-.88.19l-3.2 1.78c-.49.27-.93 1.03-.93 1.58v3.39c0 .56.44 1.31.93 1.58l3.2 1.78c.46.26 1.3.26 1.76 0l3.2-1.78c.49-.27.93-1.03.93-1.58V10.3c0-.56-.44-1.31-.93-1.58l-3.2-1.78c-.23-.13-.55-.19-.88-.19Z"/></symbol><symbol viewBox="0 0 16 16" id="chevron-right" xmlns="http://www.w3.org/2000/svg"><path d="m6 12 4-4-4-4"/></symbol><symbol viewBox="0 0 24 24" id="discount-shape" xmlns="http://www.w3.org/2000/svg"><path d="M12 22.75c-.63 0-1.22-.24-1.66-.69l-1.52-1.52c-.12-.12-.44-.25-.6-.25H6.06c-1.3 0-2.35-1.05-2.35-2.35v-2.16c0-.16-.13-.48-.25-.6l-1.52-1.52c-.44-.44-.69-1.03-.69-1.66 0-.63.24-1.22.69-1.66l1.52-1.52c.12-.12.25-.44.25-.6V6.06c0-1.3 1.05-2.35 2.35-2.35h2.16c.16 0 .48-.13.6-.25l1.52-1.52c.88-.88 2.44-.88 3.32 0l1.52 1.52c.12.12.44.25.6.25h2.16c1.3 0 2.35 1.05 2.35 2.35v2.16c0 .16.13.48.25.6l1.52 1.52c.44.44.69 1.03.69 1.66 0 .63-.24 1.22-.69 1.66l-1.52 1.52c-.12.12-.25.44-.25.6v2.16c0 1.3-1.05 2.35-2.35 2.35h-2.16c-.16 0-.48.13-.6.25l-1.52 1.52c-.44.45-1.03.69-1.66.69Zm-7.48-8.63c.4.4.69 1.1.69 1.66v2.16c0 .47.38.85.85.85h2.16c.56 0 1.26.29 1.66.69L11.4 21c.32.32.88.32 1.2 0l1.52-1.52c.4-.4 1.1-.69 1.66-.69h2.16c.47 0 .85-.38.85-.85v-2.16c0-.56.29-1.26.69-1.66L21 12.6a.84.84 0 0 0 .25-.6.84.84 0 0 0-.25-.6l-1.52-1.52c-.4-.4-.69-1.1-.69-1.66V6.06a.85.85 0 0 0-.85-.85h-2.16c-.56 0-1.26-.29-1.66-.69L12.6 3a.87.87 0 0 0-1.2 0L9.88 4.52c-.4.4-1.1.69-1.66.69H6.06a.85.85 0 0 0-.85.85v2.16c0 .56-.29 1.26-.69 1.66L3 11.4a.84.84 0 0 0-.25.6c0 .23.09.44.25.6l1.52 1.52Z"/><path d="M15 16c-.56 0-1.01-.45-1.01-1s.45-1 1-1 1 .45 1 1-.44 1-.99 1Zm-5.99-6C8.45 10 8 9.55 8 9s.45-1 1-1 1 .45 1 1-.44 1-.99 1ZM9 15.75c-.19 0-.38-.07-.53-.22a.754.754 0 0 1 0-1.06l6-6c.29-.29.77-.29 1.06 0 .29.29.29.77 0 1.06l-6 6c-.15.15-.34.22-.53.22Z"/></symbol><symbol viewBox="0 0 32 32" xml:space="preserve" id="key-square" xmlns="http://www.w3.org/2000/svg"><path d="M20 30.3h-8C4.8 30.3 1.7 27.2 1.7 20v-8C1.7 4.8 4.8 1.7 12 1.7h8c7.2 0 10.3 3.1 10.3 10.3v8c0 7.2-3.1 10.3-10.3 10.3zM12 3.7c-6.2 0-8.3 2.2-8.3 8.3v8c0 6.2 2.2 8.3 8.3 8.3h8c6.2 0 8.3-2.2 8.3-8.3v-8c0-6.2-2.2-8.3-8.3-8.3h-8z"/><path d="M11.7 24.3h-.3l-1.6-.2c-1-.1-1.8-1-1.9-1.9l-.2-1.6c-.1-.6.2-1.4.6-1.9l3.1-3.1c-.5-2.2.2-4.4 1.8-6 2.5-2.5 6.7-2.5 9.3 0 1.2 1.2 1.9 2.9 1.9 4.6 0 1.7-.7 3.4-1.9 4.6-1.6 1.6-3.8 2.2-6 1.8l-3 3c-.5.5-1.1.7-1.8.7zm6.1-14.6c-1.2 0-2.3.4-3.2 1.3-1.2 1.2-1.6 2.9-1.1 4.6.1.4 0 .7-.2 1L9.7 20s-.1.2-.1.3l.2 1.6c0 .1.2.2.2.2l1.6.2c.1 0 .2 0 .3-.1l3.5-3.4c.3-.3.7-.4 1-.2 1.6.5 3.4.1 4.6-1.1.9-.9 1.3-2 1.3-3.2 0-1.2-.5-2.4-1.3-3.2-.9-1-2.1-1.4-3.2-1.4zm3.9 8.4z"/><path d="M13.9 22.7c-.3 0-.5-.1-.7-.3l-1.1-1.1c-.4-.4-.4-1 0-1.4.4-.4 1-.4 1.4 0l1.1 1.1c.4.4.4 1 0 1.4-.2.2-.4.3-.7.3zm4-7.1c-.7 0-1.3-.6-1.3-1.3s.6-1.3 1.3-1.3c.7 0 1.3.6 1.3 1.3s-.6 1.3-1.3 1.3z"/></symbol><symbol viewBox="0 0 37 37" id="logo" xmlns="http://www.w3.org/2000/svg"><path d="M18.5 34.888c-1.033 0-2.081-.232-2.898-.71l-8.48-4.887c-3.452-2.328-3.668-2.682-3.668-6.336v-8.91c0-3.655.2-4.01 3.592-6.306l8.54-4.933c1.62-.94 4.163-.94 5.782 0l8.51 4.902c3.453 2.328 3.669 2.682 3.669 6.336v8.896c0 3.653-.2 4.008-3.592 6.305l-8.541 4.933c-.833.478-1.88.71-2.914.71Zm0-30.464c-.647 0-1.28.124-1.726.386l-8.48 4.902c-2.512 1.696-2.512 1.696-2.512 4.332v8.896c0 2.636 0 2.636 2.574 4.378l8.418 4.856c.91.524 2.559.524 3.468 0l8.48-4.902c2.497-1.696 2.497-1.696 2.497-4.332v-8.896c0-2.636 0-2.636-2.575-4.378L20.227 4.81c-.447-.262-1.08-.386-1.727-.386Z"/><path d="M18.5 24.281a5.783 5.783 0 0 1-5.781-5.781 5.783 5.783 0 0 1 5.781-5.781 5.783 5.783 0 0 1 5.781 5.781 5.783 5.783 0 0 1-5.781 5.781Zm0-9.25a3.474 3.474 0 0 0-3.469 3.469 3.474 3.474 0 0 0 3.469 3.469 3.474 3.474 0 0 0 3.469-3.469 3.474 3.474 0 0 0-3.469-3.469Z"/></symbol><symbol viewBox="0 0 24 24" id="message-question" xmlns="http://www.w3.org/2000/svg"><path d="M8 22.32c-.28 0-.57-.07-.83-.21-.57-.3-.92-.9-.92-1.54v-1.42c-3.02-.31-5-2.53-5-5.71v-6C1.25 4 3.56 1.69 7 1.69h10c3.44 0 5.75 2.31 5.75 5.75v6c0 3.44-2.31 5.75-5.75 5.75h-3.77l-4.26 2.84c-.29.19-.63.29-.97.29ZM7 3.18c-2.58 0-4.25 1.67-4.25 4.25v6c0 2.58 1.67 4.25 4.25 4.25.41 0 .75.34.75.75v2.13c0 .13.08.19.13.22s.15.06.26-.01l4.45-2.96c.12-.08.27-.13.42-.13h4c2.58 0 4.25-1.67 4.25-4.25v-6c0-2.58-1.67-4.25-4.25-4.25H7Z"/><path d="M12 12.11c-.41 0-.75-.34-.75-.75v-.21c0-1.16.85-1.73 1.17-1.95.37-.25.49-.42.49-.68 0-.5-.41-.91-.91-.91s-.91.41-.91.91c0 .41-.34.75-.75.75s-.75-.34-.75-.75c0-1.33 1.08-2.41 2.41-2.41s2.41 1.08 2.41 2.41c0 1.14-.84 1.71-1.15 1.92-.39.26-.51.43-.51.71v.21c0 .42-.34.75-.75.75Zm0 2.49a.749.749 0 1 1-.002-1.498A.749.749 0 0 1 12 14.6Z"/></symbol><symbol id="search" viewBox="0 0 24 24" xml:space="preserve" xmlns="http://www.w3.org/2000/svg"><style>.gst0{fill:#7e7e7e}</style><g id="gsearch_1"><path class="gst0" d="M11 20c-5 0-9-4-9-9s4-9 9-9 9 4 9 9-4 9-9 9zm0-16c-3.9 0-7 3.1-7 7s3.1 7 7 7 7-3.1 7-7-3.1-7-7-7z" id="gVector"/><path class="gst0" d="M21 22c-.3 0-.5-.1-.7-.3L16 17.4c-.4-.4-.4-1 0-1.4.4-.4 1-.4 1.4 0l4.3 4.3c.4.4.4 1 0 1.4-.2.2-.4.3-.7.3z" id="gVector_2"/></g></symbol><symbol viewBox="0 0 32 32" xml:space="preserve" id="user-square" xmlns="http://www.w3.org/2000/svg"><path d="M20 30.3h-8c-1.8 0-3.2-.2-4.5-.5-.5-.1-.7-.6-.7-1 .3-4 4.4-7.1 9.2-7.1s8.8 3.1 9.2 7.1c0 .5-.3.9-.7 1-1.3.4-2.7.5-4.5.5zM9 28.1c.9.2 1.9.3 3 .3h8c1.2 0 2.2-.1 3-.3-.7-2.6-3.6-4.5-7-4.5s-6.3 1.9-7 4.5z"/><path d="M7.8 29.8h-.3c-4-1.1-5.9-4.2-5.9-9.8v-8C1.7 4.8 4.8 1.7 12 1.7h8c7.2 0 10.3 3.1 10.3 10.3v8c0 5.5-1.9 8.7-5.9 9.8-.3.1-.6 0-.8-.1-.2-.2-.4-.4-.4-.7-.3-3-3.4-5.3-7.2-5.3-3.8 0-6.9 2.3-7.2 5.3 0 .3-.2.6-.4.7-.2.1-.4.1-.6.1zm8.2-8.2c4.3 0 8 2.5 8.9 5.9 2.4-1.1 3.4-3.4 3.4-7.5v-8c0-6.2-2.2-8.3-8.3-8.3h-8c-6.2 0-8.3 2.2-8.3 8.3v8c0 4.1 1 6.4 3.4 7.5.9-3.4 4.6-5.9 8.9-5.9zm0-1.7c-3.2 0-5.8-2.6-5.8-5.8 0-3.2 2.6-5.8 5.8-5.8 3.2 0 5.8 2.6 5.8 5.8 0 3.2-2.6 5.8-5.8 5.8zm0-9.6c-2.1 0-3.8 1.7-3.8 3.8 0 2.1 1.7 3.8 3.8 3.8 2.1 0 3.8-1.7 3.8-3.8 0-2.1-1.7-3.8-3.8-3.8z"/><path d="M16 19.9c-3.2 0-5.8-2.6-5.8-5.8s2.6-5.8 5.8-5.8c3.2 0 5.8 2.6 5.8 5.8s-2.6 5.8-5.8 5.8zm0-9.6c-2.1 0-3.8 1.7-3.8 3.8 0 2.1 1.7 3.8 3.8 3.8s3.8-1.7 3.8-3.8c0-2.1-1.7-3.8-3.8-3.8z"/></symbol><symbol viewBox="0 0 32 32" xml:space="preserve" id="wallet-money" xmlns="http://www.w3.org/2000/svg"><path d="M9.6 30.3c-3.2 0-5.8-2.3-5.8-5.1v-2.7c0-.6.4-1 1-1s1 .4 1 1c0 1.7 1.6 2.9 3.8 2.9 2.1 0 3.8-1.3 3.8-2.9 0-.6.4-1 1-1s1 .4 1 1v2.7c-.1 2.8-2.6 5.1-5.8 5.1zm-3.5-3.8c.6 1.1 1.9 1.8 3.4 1.8s2.8-.8 3.4-1.8c-.9.6-2.1.9-3.4.9-1.2 0-2.4-.3-3.4-.9z"/><path d="M9.6 23.7c-2.2 0-4.1-1-5.1-2.6-.4-.7-.7-1.5-.7-2.3 0-1.4.6-2.7 1.7-3.7 1.1-.9 2.5-1.5 4-1.5s2.9.5 4 1.5c1.1.9 1.8 2.3 1.8 3.7 0 .8-.2 1.6-.6 2.3-1 1.6-3 2.6-5.1 2.6zm-.1-8c-1 0-2 .3-2.7 1-.7.6-1 1.4-1 2.2 0 .5.1.9.4 1.3.6 1 1.9 1.6 3.4 1.6s2.8-.6 3.4-1.6c.2-.4.4-.8.4-1.3 0-.8-.4-1.6-1.1-2.2-.8-.7-1.7-1-2.8-1z"/><path d="M9.6 27.4c-3.2 0-5.8-2.2-5.8-4.9v-3.7c0-2.8 2.6-5.1 5.8-5.1 1.5 0 2.9.5 4 1.5s1.7 2.3 1.7 3.7v3.7c0 2.7-2.4 4.8-5.7 4.8zm0-11.7c-2.1 0-3.8 1.4-3.8 3.1v3.7c0 1.7 1.6 2.9 3.8 2.9 2.1 0 3.8-1.3 3.8-2.9v-3.7c0-.8-.4-1.6-1-2.2-.8-.6-1.8-.9-2.8-.9zm15.8 4c-2 0-3.7-1.5-3.9-3.4-.1-1.1.3-2.2 1.1-3 .7-.7 1.6-1.1 2.6-1.1H28c1.3 0 2.3 1.1 2.3 2.4v2.7c0 1.3-1 2.3-2.3 2.4h-2.6zm2.6-5.4h-2.7c-.5 0-.9.2-1.2.5-.4.4-.6.9-.5 1.4.1.9.9 1.6 1.9 1.6H28c.2 0 .3-.2.3-.4v-2.7c0-.3-.1-.4-.3-.4z"/><path d="M21.3 28.3H18c-.6 0-1-.4-1-1s.4-1 1-1h3.3c3.4 0 5.7-2.2 5.7-5.7v-.9h-1.6c-2 0-3.7-1.5-3.9-3.4-.1-1.1.3-2.2 1.1-3 .7-.7 1.6-1.1 2.6-1.1H27v-.9c0-3.1-1.8-5.3-4.8-5.6-.3 0-.5-.1-.9-.1h-12c-.3 0-.6 0-.9.1-2.9.4-4.7 2.5-4.7 5.6V14c0 .6-.4 1-1 1s-1-.4-1-1v-2.7c0-4.1 2.5-7.1 6.5-7.6.4-.1.8-.1 1.2-.1h12c.3 0 .7 0 1.2.1 3.9.5 6.5 3.4 6.5 7.6v1.9c0 .6-.4 1-1 1h-2.8c-.5 0-.9.2-1.2.5-.4.4-.6.9-.5 1.4.1.9.9 1.6 1.9 1.6H28c.6 0 1 .4 1 1v1.9c0 4.7-3.1 7.7-7.7 7.7z"/></symbol></svg>