<?xml version="1.0" encoding="utf-8"?><svg xmlns="http://www.w3.org/2000/svg" xmlns:xlink="http://www.w3.org/1999/xlink"><symbol viewBox="0 0 24 24" id="3d-square" xmlns="http://www.w3.org/2000/svg"><path d="M15 22.75H9c-5.43 0-7.75-2.32-7.75-7.75V9c0-5.43 2.32-7.75 7.75-7.75h6c5.43 0 7.75 2.32 7.75 7.75v6c0 5.43-2.32 7.75-7.75 7.75Zm-6-20C4.39 2.75 2.75 4.39 2.75 9v6c0 4.61 1.64 6.25 6.25 6.25h6c4.61 0 6.25-1.64 6.25-6.25V9c0-4.61-1.64-6.25-6.25-6.25H9Z"/><path d="M12 13.08c-.13 0-.26-.03-.38-.1l-5.3-3.06a.742.742 0 0 1-.27-1.02c.21-.36.67-.48 1.02-.27l4.92 2.85 4.89-2.83c.36-.21.82-.08 1.02.27.2.35.08.82-.27 1.02l-5.26 3.04c-.11.06-.24.1-.37.1Z"/><path d="M12 18.52c-.41 0-.75-.34-.75-.75v-5.44c0-.41.34-.75.75-.75s.75.34.75.75v5.44c0 .41-.34.75-.75.75Z"/><path d="M12 18.75c-.58 0-1.15-.13-1.61-.38l-3.2-1.78c-.96-.53-1.7-1.8-1.7-2.9V10.3c0-1.09.75-2.36 1.7-2.9l3.2-1.78c.92-.51 2.3-.51 3.22 0l3.2 1.78c.96.53 1.7 1.8 1.7 2.9v3.39c0 1.09-.75 2.36-1.7 2.9l-3.2 1.78c-.46.26-1.03.38-1.61.38Zm0-12c-.33 0-.65.06-.88.19l-3.2 1.78c-.49.27-.93 1.03-.93 1.58v3.39c0 .56.44 1.31.93 1.58l3.2 1.78c.46.26 1.3.26 1.76 0l3.2-1.78c.49-.27.93-1.03.93-1.58V10.3c0-.56-.44-1.31-.93-1.58l-3.2-1.78c-.23-.13-.55-.19-.88-.19Z"/></symbol><symbol viewBox="0 0 24 24" id="discount-shape" xmlns="http://www.w3.org/2000/svg"><path d="M12 22.75c-.63 0-1.22-.24-1.66-.69l-1.52-1.52c-.12-.12-.44-.25-.6-.25H6.06c-1.3 0-2.35-1.05-2.35-2.35v-2.16c0-.16-.13-.48-.25-.6l-1.52-1.52c-.44-.44-.69-1.03-.69-1.66 0-.63.24-1.22.69-1.66l1.52-1.52c.12-.12.25-.44.25-.6V6.06c0-1.3 1.05-2.35 2.35-2.35h2.16c.16 0 .48-.13.6-.25l1.52-1.52c.88-.88 2.44-.88 3.32 0l1.52 1.52c.12.12.44.25.6.25h2.16c1.3 0 2.35 1.05 2.35 2.35v2.16c0 .16.13.48.25.6l1.52 1.52c.44.44.69 1.03.69 1.66 0 .63-.24 1.22-.69 1.66l-1.52 1.52c-.12.12-.25.44-.25.6v2.16c0 1.3-1.05 2.35-2.35 2.35h-2.16c-.16 0-.48.13-.6.25l-1.52 1.52c-.44.45-1.03.69-1.66.69Zm-7.48-8.63c.4.4.69 1.1.69 1.66v2.16c0 .47.38.85.85.85h2.16c.56 0 1.26.29 1.66.69L11.4 21c.32.32.88.32 1.2 0l1.52-1.52c.4-.4 1.1-.69 1.66-.69h2.16c.47 0 .85-.38.85-.85v-2.16c0-.56.29-1.26.69-1.66L21 12.6a.84.84 0 0 0 .25-.6.84.84 0 0 0-.25-.6l-1.52-1.52c-.4-.4-.69-1.1-.69-1.66V6.06a.85.85 0 0 0-.85-.85h-2.16c-.56 0-1.26-.29-1.66-.69L12.6 3a.87.87 0 0 0-1.2 0L9.88 4.52c-.4.4-1.1.69-1.66.69H6.06a.85.85 0 0 0-.85.85v2.16c0 .56-.29 1.26-.69 1.66L3 11.4a.84.84 0 0 0-.25.6c0 .23.09.44.25.6l1.52 1.52Z"/><path d="M15 16c-.56 0-1.01-.45-1.01-1s.45-1 1-1 1 .45 1 1-.44 1-.99 1Zm-5.99-6C8.45 10 8 9.55 8 9s.45-1 1-1 1 .45 1 1-.44 1-.99 1ZM9 15.75c-.19 0-.38-.07-.53-.22a.754.754 0 0 1 0-1.06l6-6c.29-.29.77-.29 1.06 0 .29.29.29.77 0 1.06l-6 6c-.15.15-.34.22-.53.22Z"/></symbol><symbol viewBox="0 0 32 32" id="key-square" xmlns="http://www.w3.org/2000/svg"><path d="M12 29.333h8c6.667 0 9.333-2.667 9.333-9.333v-8c0-6.667-2.667-9.333-9.333-9.333h-8c-6.667 0-9.333 2.667-9.333 9.333v8c0 6.667 2.667 9.333 9.333 9.333z"/><path d="M21.707 18.147a5.529 5.529 0 0 1-5.573 1.373l-3.453 3.44c-.24.253-.733.413-1.093.36l-1.6-.213c-.533-.067-1.013-.573-1.093-1.093l-.213-1.6c-.053-.347.12-.84.36-1.093l3.44-3.44a5.558 5.558 0 0 1 1.373-5.573c2.16-2.16 5.68-2.16 7.853 0 2.16 2.147 2.16 5.667 0 7.84zm-7.774 3.56L12.8 20.56M17.859 14.267h.012"/></symbol><symbol viewBox="0 0 24 24" id="message-question" xmlns="http://www.w3.org/2000/svg"><path d="M8 22.32c-.28 0-.57-.07-.83-.21-.57-.3-.92-.9-.92-1.54v-1.42c-3.02-.31-5-2.53-5-5.71v-6C1.25 4 3.56 1.69 7 1.69h10c3.44 0 5.75 2.31 5.75 5.75v6c0 3.44-2.31 5.75-5.75 5.75h-3.77l-4.26 2.84c-.29.19-.63.29-.97.29ZM7 3.18c-2.58 0-4.25 1.67-4.25 4.25v6c0 2.58 1.67 4.25 4.25 4.25.41 0 .75.34.75.75v2.13c0 .13.08.19.13.22s.15.06.26-.01l4.45-2.96c.12-.08.27-.13.42-.13h4c2.58 0 4.25-1.67 4.25-4.25v-6c0-2.58-1.67-4.25-4.25-4.25H7Z"/><path d="M12 12.11c-.41 0-.75-.34-.75-.75v-.21c0-1.16.85-1.73 1.17-1.95.37-.25.49-.42.49-.68 0-.5-.41-.91-.91-.91s-.91.41-.91.91c0 .41-.34.75-.75.75s-.75-.34-.75-.75c0-1.33 1.08-2.41 2.41-2.41s2.41 1.08 2.41 2.41c0 1.14-.84 1.71-1.15 1.92-.39.26-.51.43-.51.71v.21c0 .42-.34.75-.75.75Zm0 2.49a.749.749 0 1 1-.002-1.498A.749.749 0 0 1 12 14.6Z"/></symbol><symbol viewBox="0 0 32 32" id="user-square" xmlns="http://www.w3.org/2000/svg"><path d="M20.001 30.333h-8c-1.76 0-3.227-.173-4.467-.547a1.022 1.022 0 0 1-.72-1.04c.333-3.987 4.373-7.12 9.187-7.12s8.84 3.12 9.187 7.12a.983.983 0 0 1-.72 1.04c-1.24.373-2.707.547-4.467.547zM8.961 28.08c.88.173 1.88.253 3.04.253h8c1.16 0 2.16-.08 3.04-.253-.707-2.56-3.627-4.453-7.04-4.453s-6.333 1.893-7.04 4.453z"/><path d="M20 2.667h-8c-6.667 0-9.333 2.667-9.333 9.333v8c0 5.04 1.52 7.8 5.147 8.827.293-3.467 3.853-6.2 8.187-6.2s7.893 2.733 8.187 6.2C27.815 27.8 29.335 25.04 29.335 20v-8c0-6.667-2.667-9.333-9.333-9.333zm-4 16.226c-2.64 0-4.773-2.147-4.773-4.787S13.36 9.333 16 9.333c2.64 0 4.773 2.133 4.773 4.773S18.64 18.893 16 18.893z"/><path d="M16 19.893c-3.187 0-5.773-2.6-5.773-5.787S12.814 8.333 16 8.333c3.187 0 5.773 2.587 5.773 5.773S19.186 19.893 16 19.893zm0-9.56a3.778 3.778 0 0 0-3.773 3.773A3.781 3.781 0 0 0 16 17.893a3.78 3.78 0 0 0 0-7.56z"/></symbol><symbol viewBox="0 0 32 32" id="wallet-money" xmlns="http://www.w3.org/2000/svg"><path d="M14.335 22.481v2.707c0 2.293-2.133 4.147-4.76 4.147s-4.773-1.853-4.773-4.147v-2.707c0 2.293 2.133 3.92 4.773 3.92 2.627 0 4.76-1.64 4.76-3.92z"/><path d="M14.333 18.813c0 .667-.187 1.28-.507 1.813-.787 1.293-2.4 2.107-4.267 2.107s-3.48-.827-4.267-2.107a3.498 3.498 0 0 1-.507-1.813c0-1.147.533-2.173 1.387-2.92.867-.76 2.053-1.213 3.373-1.213s2.507.467 3.373 1.213c.88.733 1.413 1.773 1.413 2.92z"/><path d="M14.335 18.813v3.667c0 2.293-2.133 3.92-4.76 3.92s-4.773-1.64-4.773-3.92v-3.667c0-2.293 2.133-4.147 4.773-4.147 1.32 0 2.507.467 3.373 1.213.853.747 1.387 1.787 1.387 2.933zm14.998-4.186v2.747A1.37 1.37 0 0 1 28 18.734h-2.613c-1.44 0-2.76-1.053-2.88-2.493-.08-.84.24-1.627.8-2.173a2.655 2.655 0 0 1 1.92-.8H28a1.369 1.369 0 0 1 1.333 1.36z"/><path d="M2.667 14v-2.667c0-3.627 2.187-6.16 5.587-6.587.347-.053.707-.08 1.08-.08h12c.347 0 .68.013 1 .067 3.44.4 5.667 2.947 5.667 6.6v1.933h-2.773c-.747 0-1.427.293-1.92.8a2.678 2.678 0 0 0-.8 2.173c.12 1.44 1.44 2.493 2.88 2.493h2.613v1.933c0 4-2.667 6.667-6.667 6.667h-3.333"/></symbol></svg>